<svg xmlns="http://www.w3.org/2000/svg" viewBox="0 0 768 768">

    <g stroke="black">
        <path d="M576 464.008V335.196M576 433.483v-9.972M417.664 576 576 538.587M200.548 192h146.43M300.006 576 192 310.123M576 212.651 513.519 576M576 465.76V346.324M571.535 192 576 387.692M576 449.459 541.247 576M576 313.894 192 556.741M511.587 576 576 269.555M576 480.051 428.558 576M576 253.835 387.914 192M576 209.663 192 381.221M576 231.682V346.14M192 349.382 221.224 576M250.647 192 576 326.901M192 387.927 381.562 576M211.299 576h16.193M442.5 576H270.66M192 497.4l384-38.435M194.116 192 192 391.884M576 555.559V347.857M425.04 192l89.278 384M560.938 192H204.819M576 324.504v49.355M394.164 576 576 356.868M576 291.904 243.793 576M576 483.916 436.02 576M351.352 576h53.737M576 573.125V280.666M192 424.819l384 138.914M295.3 192l-16.897 384M192 257.033 518.858 576M342.407 192 576 230.539M203.638 576h233.779M576 559.642V297.918M576 538.6l-384 20.165M576 194.351v362.234M192 509.462l384-265.305M192 401.801v-65.824M315.698 576l222.061-384M292.958 192 576 256.928M377.826 576 192 494.009M576 376.022 574.297 576M359.901 576h62.192M334.993 192 576 237.904M576 244.076v-41.919M576 427.888 544.046 576M486.7 576 192 559.661M576 524.023 467.524 576M460.4 576h-78.376M465.529 576H224.405M192 302.379 435.6 192M572.244 576 576 547.153M315.731 576 576 437.102M576 553.171v-18.894M465.35 576H222.351M449.805 576l75.264-384M320.242 192 576 574.845M376.535 576 192 389.798M576 285.149 192 538.778M576 388.255 198.368 576M209.13 576 576 258.107M192 434.231v-12.403M211.766 576 576 280.649M503.267 576h68.357M576 438.556V317.762M576 433.56 361.154 192M220.577 576 576 544.727M471.657 576l81.83-384M233.992 576 345.99 192M192 517.249l384-46.08M192 538.344 530.599 192M576 271.192 268.258 576M576 484.587 452.334 576M576 531.373 192 232.482M576 409.008v-16.375M423.947 576 576 568.901M576 563.307 319.675 576M307.371 576 576 197.389M331.213 192 192 537.024M465.209 576 192 265.962M345.24 192 576 509.422M556.09 576l-14.449-384M192 574.323 463.066 192M192 277.604 576 393.23M236.736 576 576 242.567M461.988 576l86.679-384M249.492 576 192 201.406M192 400.926V253.105M425.494 576 576 266.439M256.036 576 576 313.605M576 432.588 369.035 576M466.245 192h75.501M407.001 192 576 510.617M199.22 576 192 438.245M419.879 576l114.366-384M576 520.95V259.998M576 489.671v-87.105M510.065 192 347.479 576M576 392.038l-384 148.15M537.227 576 576 499.52M290.167 192 576 239.128M576 536.157 192 417.936M281.259 576 576 317.204M393.472 576 576 355.709M375.133 192h60.181M559.34 576 264.428 192M576 468.347 424.056 576M433.226 576 576 446.451M525.771 576h-283.96M192 457.281 310.83 576M192 394.591 574.844 576M576 304.902V255.8M576 435.736l-384-20.133M576 464.945V333.388M254.063 576h260.226M576 396.025V196.162M264.264 576 576 343.052M192 219.731 407.827 192M331.255 576 576 573.135M382.228 576h-7.368M576 194.082 327.961 576M332.174 576l69.205-384M355.503 576l-45.755-384M576 367.495V255.35M324.101 192 213.65 576M473.225 576 192 496.414M576 236.825 194.251 576M261.932 576 192 351.516M250.934 576h224.175M576 473.633v60.063M400.475 576 576 227.508M576 304.796 251.552 576M192 448.675l384 46.699M301.667 576 576 467.293M323.476 192 576 301.097M192 317.486 223.201 576M192 243.728 271.023 576M562.998 576 576 374.299M261.98 576h286.068M192 377.066 203.924 576M576 536.01 330.054 576M576 360.562 385.843 576M576 250.112 566.717 576M411.105 576 273.387 192M576 535.285 400.346 192M576 224.18 192 441.806M513.483 576 576 225.154M192 224.972 408.252 192M192 557.327V317.122M200.698 576 192 371.02M576 222.061v40.713M192 417.148l384-114.947M192 371.924v61.965M523.806 576H281.327M576 223.309 572.655 576M194.486 576 576 265.881M484.938 576 576 211.8M244.918 576 576 546.728M576 309.64l-384-89.611M326.265 576l-53.133-384M562.286 576H450.059M192 389.956 203.062 192M576 368.676 287.155 576M192 442.683l384-59.916M265.858 576l-54.625-384M403.564 576H194.665M576 283.22v201.366M576 348.315 349.538 576M321.634 576l4.803-384M375.922 576 192 278.611M483.986 192 576 445.436M576 490.686v-8.079M192 293.343l384-52.773M221.302 576 192 343.596M378.975 576h-48.673M576 344.141l-384-44.814M576 480.739v82.562M192 300.763l384-97.589M576 459.247 192 261.546M576 352.54 486.896 576M430.373 576 371.39 192M504.741 576H393.787M556.275 576 576 351.115M576 537.696V385.664M576 329.853l-384-78.992M576 480.833 389.47 192M576 291.621 335.816 576M313.258 576 192 427.393M453.526 192 576 286.388M454.048 576h-5.601M576 443.887 329.542 576M383.104 192h4.183M576 543.203v-10.672M192 316.673l384 56.219M416.16 576 224.659 192M192 517.604 447.698 576M192 214.96 240.778 576M224.065 576 192 434.152M192 288.827 292.956 192M192 349.353v-75.848M526.571 576h12.533M402.563 576h-68.722M576 361.242v136.839M192 517.849 373.969 576M576 380.291 539.109 576M374.905 576h168.843M344.685 192 576 237.731M321.288 576 576 267.248M432.745 576h-231.84M576 276.591v136.768M214.557 576h296.787M556.571 192 409.542 576M192 217.854 218.934 576M260.624 192l29.414 384M292.265 576 576 484.697M192 416.298l384-139.033M192 271.193 228.822 576M576 575.466 447.694 576M404.012 576 281.545 192M576 267.213 330.603 576M576 398.386 499.804 576M192 399.457 320.627 576M576 253.841v.379M192 215.034 291.317 576M354.6 192l-2.624 384M576 437.107 362.716 576M372.741 576 576 356.329M576 256.844v-31.703M576 252.234v21.445M192 254.398v-28.402M525.113 576l19.177-384M330.188 576 576 458.775M222.845 192l214.238 384M192 326.482l384 188.24M576 196.737v122.661M576 409.942 350.486 576M429.76 192 576 364.03M576 435.206l-384 44.567M576 537.184 363.155 576M192 260.374v204.197M576 514.855v-26.022M523.612 576 423.203 192M394.397 576l-72.411-384M576 471.668v-278.49M303.427 192 576 366.551M576 219.349 342.646 576M192 279.866l384 158.51M192 255.408l384 136.424M271.217 576 576 527.11M389.308 576 576 536.624M576 546.489 243.685 576M520.146 192H265.629M576 521.63V308.316M487.318 576l57.863-384M387.703 576 192 486.719M576 400.909v149.757M576 451.804l-384 39.528M192 276.104l384 263.6M307.666 192h61.449M576 302.153 563.115 576M576 479.804v-201.79M576 504.541 337.051 576M207.967 192l278.831 384M192 308.525v-25.284M576 219.425 203.455 576M576 334.741 437.586 192M576 418.392 376.177 192M474.737 576H368.049M209.646 576 192 216.855M576 404.334l-384 .376M576 357.457 454.885 192M393.243 576 576 480.063M576 378.974 479.432 576M576 506.243 192 382.468M349.214 576 576 516.003M247.592 576l36.73-384M192 201.207l384 322.274M576 305.925v21.046M261.938 576h63.987M505.949 576H378.654M576 329.745l-384 89.968M297.72 576h53.734M247.313 576l127.564-384M576 447.489 328.943 576M576 449.628 315.975 576M576 563.221 300.934 192M192 208.675 512.852 576M451.814 576 192 421.72M454.001 192 192 381.85M576 515.265 267.518 192M324.255 192 192 313.827M576 443.128 291.893 576M331.367 576 576 252.808M192 393.984 225.003 576M192 260.173l384 279.045M576 214.7 344.823 576M576 535.969v-45.178M576 520.562 509.428 576M192 496.87 217.037 192M364.996 192 192 342.103M192 286.203v134.724M192 486.814l384-146.076M576 294.392v100.196M364.428 192 576 499.726M576 551.637 281.71 576M576 475.048 466.725 576M576 547.569 567.669 576M409.008 576 220.329 192M531.006 576 576 220.756M550.059 576 192 439.85M209.618 576h89.937M576 368.583 355.85 192M381.222 576H574.47M576 331.2l-384 35.739M399.304 192l17.202 384M576 402.154l-384 14.329M566.468 576 192 502.45M576 210.796v161.76M576 521.392 291.452 576M576 252.598v115.111M192 468.974 481.554 576M284.528 576h-8.383M472.828 576H334.536M192 245.199 576 396.16M244.914 576h308.444M192 536.828 223.708 576M576 233.399v199.538M576 363.09l-384-37.524M576 551.063V266.49M576 506.179 390.347 192M576 458.229 206.619 576M576 221.487l-384 23.904M576 407.808 240.995 576M576 429.598v-19.776M372.615 576l57.238-384M576 192.939 488.288 192M576 259.854 496.242 192M192 575.822l342.791.178M439.891 192l-84.554 384M438.376 576l83.095-384M576 230.587v281.87M192 393.756v95.841M576 361.289v-99.076M548.235 576 576 453.196M452.685 192 252.413 576M576 232.743v93.996M576 418.991 494.76 192M239.874 576 576 408.035M576 274.221 395.955 576M562.393 192H270.177M281.513 192 192 533.007M192 516.514l384-19.124M413.62 576h-89.604M576 499.513 228.119 576M194.044 576 192 556.685M437.946 576 192 244.615M455.87 576h-82.524M192 524.24 552.67 576M192 382.504V213.088M576 508.471v-31.056M576 298.583v-62.957M315.22 576 576 313.63M238.816 576h209.816M498.299 576H261.351M192 346.222l384 221.383M576 436.897 319.447 192M474.284 192h47.284M192 509.567l384-29.926M351.568 576 192 478.505M280.053 192l19.072 384M481.313 192 576 296.341M576 263.217 542.028 576M204.499 576l237.343-384M192 505.981V309.104M576 247.596v160.282M192 336.45 285.657 576M576 407.615 279.048 192M576 462.043 396.068 576M576 242.732v304.046M576 546.108 208.635 192M193.414 576 576 399.61M576 303.29l-384-71.107M386.959 576l-24.93-384M192 554.961l384-225.2M419.229 192 576 411.507M449.537 192 576 210.452M192 572.514v-9.742M283.269 576h45.301M192 304.772l384-95.435M192 381.807l384 56.133M192 231.122v155.881M339.344 576 576 220.069M302.811 576 576 502.404M576 246.132l-384 146.48M576 296.321V193.538M192 294.76 524.761 576M192 436.225 226.468 192M456.198 576 576 555.713M576 319.788 466.864 576M485.865 576H345.843M516.942 576H329.671M414.768 192h-23.376M282.917 576 576 306.451M192 308.328l384 5.998M576 450.755 262.078 576M576 303.787 388.907 576M284.638 192 576 289.461M367.47 576 576 387.519M365.782 576 192 484.706M348.103 576 192 230.698M276.179 576 576 568.054M576 290.731 221.517 576M576 356.583 193.958 576M266.91 192l-23.525 384M192 426.616v-59.011M250.408 576 576 527.101M228.169 576 576 219.808M288.853 576l272.908-384M221.723 192l96.557 384M192 227.125 519.216 576M576 414.563v-67.242M244.011 192l-20.055 384M576 240.016v4.384M553.15 192h-87.995M301.821 192 576 430.797M376.712 576 192 477.499M406.202 192 216.524 576M306.625 192l261.271 384M576 355.695 338.165 576M357.673 576 576 345.457M576 262.023 491.47 192M388.433 576 192 292.336M576 478.485 564.892 576M576 276.511v130.556M459.159 192 269.832 576M576 215.369v287.787M275.614 576h144.792M192 574.154 426.467 192M382.045 576 192 210.153M239.931 192 576 549.722M352.385 192 248.73 576M427.447 192 250.815 576M576 260.053 400.245 576M576 426.142 418.986 576M486.466 192 192 342.425M259.728 192 576 423.973M576 300.577v-86.023M576 239.366 445.203 576M576 264.513 512.264 576M228.443 576h129.32M260.644 576 192 386.939M192 260.704l384 132.211M192 483.187V253.679M576 234.623 431.816 192M192 553.051 534.375 192M576 347.255 377.163 576M501.258 576 391.203 192M421.245 576h-78.666M289.615 576h234.929M192 372.84l384 128.106M192 291.658 415.135 576M331.209 576 192 571.415M569.593 192H290.207M192 226.514v46.807M240.374 192 576 562.23M572.892 576 192 478.805M576 463.327v-17.112M515.958 192l-135.91 384M192 288.97 358.466 192M192 555.878 544.085 576M192 258.641 417.901 192M576 286.25 192 521.245M494.459 192H287.596M504.372 192 576 265.244M311.96 576h129.944M313.288 576 576 408.714M576 545.263V315.886M576 567.156v-39.885M576 263.608 202.817 192M576 453.258v-90.451M283.971 576 192 428.072M576 355.019 545.75 576M371.016 576 192 329.147M576 279.227 528.554 576M502.723 576h-34.475M192 558.256 365.187 576M516.959 576l31.108-384M576 220.788 550.322 576M236.95 192 576 245.744M296.785 576l187.712-384M576 388.439l-384-103.43M306.065 576l-44.399-384M192 486.531l384 14.943M524.849 192 576 359.545M255.347 192 576 252.176M576 572.413v-28.022M268.691 192h191.507M337.93 576h89.586M511.297 576 192 238.168M514.609 192 319.905 576M361.096 576H232.604M389.513 576 192 322.974M576 497.208 221.938 192M263.412 576 576 379.887M576 509.013 424.475 576M391.792 192h65.853M357.435 192l22.667 384M576 317.549 192 492.671M576 484.709V296.865M501.681 192 576 554.476M576 218.279V570.09M328.124 576h187M484.344 576 576 538.745M576 273.385v189.28M437.723 576H279.999M242.381 192h274.936M576 276.183l-384 41.313M260.066 576 576 341.617M576 519.336 505.12 576M361.725 576h182.943M576 214.521v235.021M576 383.325l-384 74.604M340.776 192 576 380.332M236.004 576l214.418-384M576 428.124v-8.526M576 400.724V211.102M576 558.237 398.881 192M520.601 576 192 293.734M455.181 576H206.9M512.117 576 576 442.385M204.327 576 192 504.529M576 549.65 502.962 576M569.425 192 576 450.474M576 519.547V381.956M576 534.734v-50.196M576 388.853 404.479 576M552.549 192H306.884M192 430.386 356.9 576M192 290.847 316.139 192M291.704 576 576 441.396M192 498.195 482.127 192M576 418.065l-384-169.51M576 526.351 323.645 576M250.988 576 576 575.368M192 515.697V193.462M192 223.609l384 52.963M576 535.969 221.431 576M576 268.97 215.069 576M369.508 192 576 304.72M576 226.715 335.771 192M576 234.484 192 494.062M576 359.044v34.929M290.935 192l-32.09 384M215.353 576h352.456M225.842 192 576 294.194M576 527.844V348.799M192 446.963l384-239.919M316.073 576h-41.732M576 566.09 239.274 192M192 226.618l384-24.026M576 364.52 545.543 576M576 314.658 398.524 192M471.318 576 231.659 192M408.29 576 192 313.63M576 393.23 192 209.244M576 368.924 563.267 192M192 347.475 205.471 576M192 271.057v271.71M192 347.542 385.82 576M576 197.221v21.216M405.694 192l-78.489 384M522.273 192 576 528.657M496.921 576 576 412.093M192 295.865l384 213.081M576 267.631v4.435M576 324.866v-55.594M576 436.025 351.938 192M192 551.792l384-352.334M576 371.792 480.641 576M253.725 576 576 262.479M576 272.755v63.798M353.759 576 192 479.133M576 209.105 217.911 576M576 341.726v-65.39M192 544.35 425.817 576M576 395.667 192 196.514M565.714 576 236.638 192M456.987 192l-13.742 384M192 454.821l384 112.894M576 475.688v-95.251M556.245 576 576 492.148M576 342.229 550.445 576M576 473.228V305.517M576 553.071 553.529 192M576 375.083l-384-46.569M421.992 576l37.685-384M466.247 576 576 423.573M576 381.68v135.717M576 550.521 198.247 576M290.417 192l228.286 384M248.139 576l215.318-384M380.476 576h10.87M576 322.042 192 538.459M576 519.09 430.447 576M576 564.152 561.857 576M576 516.435 278.364 192M576 356.777 360.497 192M294.652 192 576 339.069M286.158 192l239.853 384M576 197.74 216.114 576M192 286.346 532.404 576M576 502.013 423.035 576M548.29 192 276.406 576M278.607 576l78.238-384M576 277.404 575.108 576M576 360.368v-57.204M576 527.905 505.07 576M192 501.277 517.96 576M192 317.822v-49.854M479.802 576H267.598M576 390.462 337.79 576M329.541 192l-74.612 384M364.267 192l-132.12 384M384.407 576 576 450.927M576 481.313 338.884 576M576 248.368v42.321M576 375.739 248.281 576M218.701 192h250.131M192 244.834l384 322.219M274.539 192h293.714M394.953 576 576 408.095M192 273.999l384-54.943M192 413.429v8.115M576 377.041v4.991M576 523.627V242.846M192 483.575 253.875 192M576 504.273 484.1 576M576 298.6 499.595 576M576 405.547v-70.668M192 342.031 273.217 576M576 267.258 192 362.99M417.256 576h-46.769M217.742 576h52.294M576 227.061v60.145M437.194 192 221.793 576M368.664 192 192 300.369M576 341.197 370.031 576M251.864 576 192 390.724M576 490.169v-104.6M219.401 192l70.724 384M487.842 192l-94.821 384M576 211.322 510.287 576M306.473 576l7.465-384M576 398.927v78.603M576 457.323 435.596 192M576 298.907 540.106 576M576 512.702 288.772 192M576 276.643V390.17M576 559.839 212.21 192M576 311.861 268.997 576M576 304.606v155.146M192 367.332 409.135 192M576 271.05 257.117 192M192 518.317 242.754 576M192 411.709V220.13M279.106 192h7.453M330.884 576 576 370.361M574.014 192l-95.202 384M203.467 576l163.94-384M576 510.031V290.552M576 201.71l-384 30.352M576 277.746v54.393M384.746 576H202.295M557.997 576 576 516.88M576 336.386 485.584 576M436.622 576h123.533M441.264 576h-79.561M576 309.101v205.446M192 366.348 511.051 576M321.453 576h196.62M576 501.5v66.898M192 311.472 520.827 576M328.641 192l25.889 384M192 356.861 323.225 192M192 312.28l384-113.389M263.538 576 576 239.201M310.599 576h138.115M576 228.437 192 503.939M338.217 576 192 479.928M576 385.301 192 245.009M371.261 576 192 495.204M517.25 576 192 368.033M192 525.201V333.183M304.075 576 192 458.952M255.756 192l136.122 384M192 461.157V274.893M576 229.136 229.879 576M576 472.033 552.717 576M372.408 576 192 438.615M192 454.816 536.079 576M192 413.472 542.425 192M367.028 576 576 440.588M332.167 576 576 366.68M273.638 576l1.765-384M299.195 576 576 241.326M576 467.993V364.562M576 288.815v125.353M472.206 576 576 314.908M576 240.625 192 306.59M576 229.034 192 538.016M192 452.333l384 16.745M576 326.68v215.297M286.65 576 576 281.555M545.971 576 254.673 192M571.959 192 576 420.347M192 226.898l384 78.817M391.912 192 576 236.154M570.298 576H428.846M509.021 576 283.307 192M317.182 192 192 560.289M224.941 576 192 344.285M576 247.75v-2.764M192 419.499l384-145.365M576 415.131 304.259 576M576 419.358v121.013M576 295.008 264.877 576M414.61 192l9.547 384M421.501 192h98.828M317.419 576 576 326.965M192 569.957 215.448 576M226.288 576 576 267.352M576 353.098 192 465.037M376.305 192 576 460.675M246.526 192 192 427.467M410.38 576 192 354.323M243.855 192l327.054 384M576 351.72v91.266M576 223.908 549.099 576M192 422.492 226.14 576M192 387.248l384-162.973M399.991 576 576 274.236M481.626 192 192 300.602M208.451 192 576 224.88M576 230.082v-35.73M576 477.652V310.259M576 540.924V427.319M576 433.859V231.126M576 533.422 549.685 192M306.418 192 576 201.926M549.558 576H426.094M192 355.46 450.478 576M233.618 192l211.239 384M516.96 576h-15.176M576 323.978v85.862M576 317.543V207.817M472.338 576 576 235.965M576 471.672v29.372M453.434 576l-80.535-384M192 530.366l384 28.939M576 383.673 194.625 576M576 343.437v70.043M576 500.228 515.45 576M261.436 576 524.51 192M262.043 192 576 198.034M192 479.232l384-17.386M311.548 576 192 428.371M321.906 192l176.751 384M279.125 576l42.079-384M576 487.929 334.545 576M230.833 192l336.073 384M576 340.804l-384-28.753M576 485.012v21.705M576 481.846 192 292.244M384.744 576H227.626M227.247 576 192 348.45M576 251.234v207.594M576 517.595v7.343M279.753 576 576 569.209M576 496.557 492.203 192M508.487 576H231.388M192 298.362 410.349 576M576 255.349v-37.578M457.539 576 576 475.503M442.305 576 192 207.105M234.993 576h68.63M576 288.479 497.312 576M479.507 576 576 248.232M576 504.826 474.033 576M317.097 576 192 405.475M192 500.302l384-141.763M576 509.937 192 523.36M332.18 576h159.08M192 526.059 439.214 576M465.005 576 576 328.645M245.322 192 192 558.465M192 501.545 297.965 576M576 359.163 415.914 192M396.702 576 192 502.724M576 219.488 261.825 576M576 562.418v-137.16M192 472.636 465.493 576M357.13 576 192 523.292M466.78 576H223.392M576 460.73 431.387 192M576 220.448v336.745M192 241.776 354.837 576M576 196.427 454.011 576M552.251 192H271.957M192 553.458l384-249.871M575.742 576 192 428.856M192 290.438 377.634 192M192 510.467l384-120.378M257.996 576h244.321M576 564.837 192 237.084M537.2 576 576 192.867M206.82 576 576 448.75M192 473.766V275.6M192 313.055v202.017M215.65 192l152.346 384M576 196.746 498.626 576M576 335.828 498.377 576M576 200.245v207.187M227.46 576h302.133M576 222.33v-4.412M192 495.557l384-75.765M576 334.484v121.855M221.358 192 576 309.592M576 387.061 271.092 192M192 324.894 253.793 192M576 488.224v-264.39M305.103 576 192 223.401M576 198.874V545.13M374.155 576 576 494.37M192 535.181 446.976 192M192 336.931 372.788 576M576 435.114 227.204 576M401.875 192 258.92 576M410.399 576 576 260.661M576 201.497 305.516 192M576 531.384 192 295.649M215.359 576 576 304.783M192 230.872l384 119.581M192 546.088 464.845 576M258.431 576 576 246.943M346.174 576h107.245M563.901 576 192 503.555M462.323 576h40.766M406.204 192h-211.24M192 289.825 429.098 576M576 410.323V299.399M510.276 576l44.042-384M464.391 192 349.229 576M576 479.404v-57.962M555.895 576 192 471.519M192 382.049V252.481M556.916 576H385.967M576 475.267v22.275M310.304 576 576 261.604M576 426.431 564.689 576M475.703 192h43.533M576 330.086 256.265 576M576 227.241 249.984 576M292.13 576h240.569M248.816 192 576 520.952M576 409.59 556.201 576M438.801 576 576 514.314M576 375.517 219.385 576M462.538 192 576 385.627M284.685 576l71.139-384M520.255 192 409.987 576M547.441 576l-68.636-384M205.569 576 192 255.91M462.617 576 192 312.781M576 312.677v-42.762M420.737 192l-16.458 384M498.43 192h-16.082M192 462.872 336.502 576M575.662 192 192 451.11M466.003 576 576 332.855M411.165 576h8.278M576 286.691l-384 93.911M424.27 576 192 271.175M546.879 576 252.476 192M576 575.339 192 227.392M192 443.665 290.935 192M445.583 576 306.671 192M420.232 576 192 374.314M248.519 576h153.423M410.463 576h78.574M192 474.046l384-231.833M192 495.906v-122.35M476.631 576H273.62M192 533.004 282.651 576M576 401.138V193.245M192 199.718 475.626 192M501.777 192 576 249.408M312.13 576l-47.61-384M576 455.235 394.889 576M200.594 576 576 258.566M192 554.312l384-48.523M318.227 192 576 450.78M345.575 192 576 365.149M451.374 192 202.649 576M576 241.938v235.289M509.925 192 576 262.319M382.788 192h54.621M192 552.509l384-218.295M342.646 576 192 499.495M219.324 192 576 209.144M416.95 192l42.059 384M576 275.969 359.772 192M192 467.668 576 239.5M549.872 192l14.97 384M220.325 576l271.713-384M576 279.35v-83.545M192 291.23 525.829 192M439.005 192 192 313.043M576 335.465 401.062 576M273.959 192l61.092 384M192 499.417 534.313 192M302.625 192l62.764 384M226.629 576 192 561.419M245.528 576l260.821-384M254.247 576h255.417M576 338.7V226.935M576 376.719v-31.997M341.621 576h88.003M384.777 576 576 429.774M576 403.232 192 274.674M519.322 576H244.124M409.588 576h25.614M386.158 576h168.525M417.89 576 247.156 192M576 320.049 192 427.363M262.709 576 576 310.129M576 251.714v105.332M517.279 192 576 543.687M418.507 192l-92.74 384M312.442 576 576 503.671M192 505.759l384-208.292M576 299.244l-384-79.633M192 552.791l384-59.628M192 369.428 355.034 576M276.64 576l143.35-384M576 225.249 192 480.244M192 227.944l384 166.728M192 377.247l384 21.163M502.928 576 464.48 192M383.258 192 576 341.896M192 281.963l384 289.589M560.548 576 192 312.895M289.363 576l84.877-384M453.345 576H286.536M442.141 192 192 281.95M576 265.904v291.72M192 474.198 475.445 192M576 471.888v-10.487M536.639 192 404.47 576M576 282.226 218.891 576M574.456 576H306.091M376.318 576 576 367.574M192 199.308l384 356.99M576 503.416 192 396.039M222.823 576h48.901M192 306.278l384 32.235M482.24 576l-22.004-384M246.485 576l218.217-384M192 547.645 207.108 192M192 432.362 256.884 192M459.478 576 576 456.806M493.206 192l56.097 384M576 454.886 311.149 192M503.59 576 576 493.246M192 515.392l384-232.434M192 216.966v42.074M536.545 576l25.571-384M303.499 576h-11.796M244.46 576 576 346.77M576 333.882 224.912 576M192 448.988v101.635M576 521.807 325.409 192M192 430.956 428.051 192M192 272.83 387.377 576M576 513.268 469.657 192M483.907 576 576 562.551M576 466.775 292.314 192M576 474.264 192 436.28M201.669 576 192 358.499M438.338 192l66.621 384M371.706 192h21.478M339.979 576h113.208M576 275.872 271.216 576M576 256.828 431.254 192M329.094 576 576 386.995M576 363.595 192 543.738M576 309.971v19.236M216.358 576h53.555M339.768 576h15.355M416.605 576 576 553.941M492.811 576H303.998M192 453.279V309.775M192 437.345 299.118 192M251.587 576l290.382-384M452.996 576l-32.115-384M483.673 192l45.953 384M409.325 192 562.79 576M217.193 192l136.422 384M576 236.59l-384 53.529M576 427.435v84.754M192 375.635l384-37.053M529.96 576 576 284.608M369.735 576h20.506M271.14 576h59.394M192 243.457 382.383 576M576 445.277 370.285 576M496.731 576l-214.38-384M576 523.011 469.023 576M192 248.642l384 115.836M467.351 576 192 411.66M258.705 576 192 403.216M532.26 576 192 208.979"/>
    </g>

</svg>
